<svg width="37" height="37" viewBox="0 0 37 37" fill="none" xmlns="http://www.w3.org/2000/svg">
<path d="M18.5811 33.6959L5.08105 26.1959V11.1959L18.5811 3.69592L32.0811 11.1959V26.1959L18.5811 33.6959ZM14.2311 14.5709C14.8061 13.9709 15.4686 13.5084 16.2186 13.1834C16.9686 12.8584 17.7561 12.6959 18.5811 12.6959C19.4061 12.6959 20.1936 12.8584 20.9436 13.1834C21.6936 13.5084 22.3561 13.9709 22.9311 14.5709L27.4311 12.0584L18.5811 7.14592L9.73105 12.0584L14.2311 14.5709ZM17.0811 29.4209V24.5084C15.7311 24.1584 14.6436 23.4459 13.8186 22.3709C12.9936 21.2959 12.5811 20.0709 12.5811 18.6959C12.5811 18.4209 12.5936 18.1644 12.6186 17.9264C12.6436 17.6884 12.6936 17.4449 12.7686 17.1959L8.08105 14.5709V24.4334L17.0811 29.4209ZM18.5811 21.6959C19.4061 21.6959 20.1126 21.4019 20.7006 20.8139C21.2886 20.2259 21.5821 19.5199 21.5811 18.6959C21.5811 17.8709 21.2876 17.1649 20.7006 16.5779C20.1136 15.9909 19.4071 15.6969 18.5811 15.6959C17.7561 15.6959 17.0501 15.9899 16.4631 16.5779C15.8761 17.1659 15.5821 17.8719 15.5811 18.6959C15.5811 19.5209 15.8751 20.2274 16.4631 20.8154C17.0511 21.4034 17.7571 21.6969 18.5811 21.6959ZM20.0811 29.4209L29.0811 24.4334V14.5709L24.3936 17.1959C24.4686 17.4459 24.5186 17.6899 24.5436 17.9279C24.5686 18.1659 24.5811 18.4219 24.5811 18.6959C24.5811 20.0709 24.1686 21.2959 23.3436 22.3709C22.5186 23.4459 21.4311 24.1584 20.0811 24.5084V29.4209Z" fill="#00FF66"/>
</svg>
