<svg width="28" height="31" viewBox="0 0 28 31" fill="none" xmlns="http://www.w3.org/2000/svg">
<path d="M13.5811 30.1959L0.0810547 22.6959V7.69592L13.5811 0.195923L27.0811 7.69592V22.6959L13.5811 30.1959ZM9.23106 11.0709C9.80606 10.4709 10.4686 10.0084 11.2186 9.68342C11.9686 9.35842 12.7561 9.19592 13.5811 9.19592C14.4061 9.19592 15.1936 9.35842 15.9436 9.68342C16.6936 10.0084 17.3561 10.4709 17.9311 11.0709L22.4311 8.55842L13.5811 3.64592L4.73105 8.55842L9.23106 11.0709ZM12.0811 25.9209V21.0084C10.7311 20.6584 9.64355 19.9459 8.81855 18.8709C7.99355 17.7959 7.58105 16.5709 7.58105 15.1959C7.58105 14.9209 7.59355 14.6644 7.61855 14.4264C7.64355 14.1884 7.69355 13.9449 7.76855 13.6959L3.08105 11.0709V20.9334L12.0811 25.9209ZM13.5811 18.1959C14.4061 18.1959 15.1126 17.9019 15.7006 17.3139C16.2886 16.7259 16.5821 16.0199 16.5811 15.1959C16.5811 14.3709 16.2876 13.6649 15.7006 13.0779C15.1136 12.4909 14.4071 12.1969 13.5811 12.1959C12.7561 12.1959 12.0501 12.4899 11.4631 13.0779C10.8761 13.6659 10.5821 14.3719 10.5811 15.1959C10.5811 16.0209 10.8751 16.7274 11.4631 17.3154C12.0511 17.9034 12.7571 18.1969 13.5811 18.1959ZM15.0811 25.9209L24.0811 20.9334V11.0709L19.3936 13.6959C19.4686 13.9459 19.5186 14.1899 19.5436 14.4279C19.5686 14.6659 19.5811 14.9219 19.5811 15.1959C19.5811 16.5709 19.1686 17.7959 18.3436 18.8709C17.5186 19.9459 16.4311 20.6584 15.0811 21.0084V25.9209Z" fill="#00732E"/>
</svg>
