<svg width="31" height="31" viewBox="0 0 31 31" fill="none" xmlns="http://www.w3.org/2000/svg">
<path d="M0.581055 0.195923H11.0811V3.94592H20.0811V0.195923H30.5811V10.6959H26.8311V19.6959H30.5811V30.1959H20.0811V26.4459H11.0811V30.1959H0.581055V19.6959H4.33106V10.6959H0.581055V0.195923ZM8.08106 7.69593V3.19592H3.58106V7.69593H8.08106ZM7.33106 10.6959V19.6959H11.0811V23.4459H20.0811V19.6959H23.8311V10.6959H20.0811V6.94592H11.0811V10.6959H7.33106ZM23.0811 22.6959V27.1959H27.5811V22.6959H23.0811ZM8.08106 22.6959H3.58106V27.1959H8.08106V22.6959ZM23.0811 3.19592V7.69593H27.5811V3.19592H23.0811Z" fill="#00732E"/>
</svg>
