<svg width="31" height="31" viewBox="0 0 31 31" fill="none" xmlns="http://www.w3.org/2000/svg">
<path d="M0.581055 0.695923H11.0811V4.44592H20.0811V0.695923H30.5811V11.1959H26.8311V20.1959H30.5811V30.6959H20.0811V26.9459H11.0811V30.6959H0.581055V20.1959H4.33106V11.1959H0.581055V0.695923ZM8.08106 8.19593V3.69592H3.58106V8.19593H8.08106ZM7.33106 11.1959V20.1959H11.0811V23.9459H20.0811V20.1959H23.8311V11.1959H20.0811V7.44592H11.0811V11.1959H7.33106ZM23.0811 23.1959V27.6959H27.5811V23.1959H23.0811ZM8.08106 23.1959H3.58106V27.6959H8.08106V23.1959ZM23.0811 3.69592V8.19593H27.5811V3.69592H23.0811Z" fill="#00FF66"/>
</svg>
