<svg width="29" height="34" viewBox="0 0 29 34" fill="none" xmlns="http://www.w3.org/2000/svg">
<path d="M10.0811 17.1959C10.8767 17.1959 11.6398 16.8799 12.2024 16.3172C12.765 15.7546 13.0811 14.9916 13.0811 14.1959C13.0811 13.4003 12.765 12.6372 12.2024 12.0746C11.6398 11.512 10.8767 11.1959 10.0811 11.1959C9.28541 11.1959 8.52234 11.512 7.95973 12.0746C7.39713 12.6372 7.08105 13.4003 7.08105 14.1959C7.08105 14.9916 7.39713 15.7546 7.95973 16.3172C8.52234 16.8799 9.28541 17.1959 10.0811 17.1959ZM28.8311 8.94592L14.5811 0.695923L0.331055 8.94592V25.4459L14.5811 33.6959L28.8311 25.4459V8.94592ZM14.5811 4.16242L25.8311 10.6754V20.9954L18.9881 16.8914L7.03155 25.8584L3.33105 23.7164V10.6754L14.5811 4.16242ZM14.5811 30.2294L9.85305 27.4919L19.1741 20.5019L25.1711 24.0989L14.5811 30.2294Z" fill="#00732E"/>
</svg>
