<svg width="37" height="37" viewBox="0 0 37 37" fill="none" xmlns="http://www.w3.org/2000/svg">
<path d="M14.0811 18.6959C14.8767 18.6959 15.6398 18.3799 16.2024 17.8172C16.765 17.2546 17.0811 16.4916 17.0811 15.6959C17.0811 14.9003 16.765 14.1372 16.2024 13.5746C15.6398 13.012 14.8767 12.6959 14.0811 12.6959C13.2854 12.6959 12.5223 13.012 11.9597 13.5746C11.3971 14.1372 11.0811 14.9003 11.0811 15.6959C11.0811 16.4916 11.3971 17.2546 11.9597 17.8172C12.5223 18.3799 13.2854 18.6959 14.0811 18.6959ZM32.8311 10.4459L18.5811 2.19592L4.33105 10.4459V26.9459L18.5811 35.1959L32.8311 26.9459V10.4459ZM18.5811 5.66242L29.8311 12.1754V22.4954L22.9881 18.3914L11.0316 27.3584L7.33105 25.2164V12.1754L18.5811 5.66242ZM18.5811 31.7294L13.8531 28.9919L23.1741 22.0019L29.1711 25.5989L18.5811 31.7294Z" fill="#00FF66"/>
</svg>
